<svg viewBox="-12 -12 264 264" xmlns="http://www.w3.org/2000/svg" class="hiroke-sigil" aria-hidden="true">
<g fill="none" stroke="currentColor" stroke-linecap="round">
<circle cx="120" cy="120" r="112" stroke-width="1" opacity="0.9"/>
<circle cx="120" cy="120" r="104" stroke-width="0.6" stroke-dasharray="1 5" opacity="0.7"/>
<path d="M120.0 8.0 Q128.0 -2.0 120.0 -2.0" stroke-width="1.1" opacity="0.85"/>
<path d="M176.0 23.0 Q187.9 18.3 181.0 14.3" stroke-width="1.1" opacity="0.85"/>
<path d="M217.0 64.0 Q229.7 65.9 225.7 59.0" stroke-width="1.1" opacity="0.85"/>
<path d="M232.0 120.0 Q242.0 128.0 242.0 120.0" stroke-width="1.1" opacity="0.85"/>
<path d="M217.0 176.0 Q221.7 187.9 225.7 181.0" stroke-width="1.1" opacity="0.85"/>
<path d="M176.0 217.0 Q174.1 229.7 181.0 225.7" stroke-width="1.1" opacity="0.85"/>
<path d="M120.0 232.0 Q112.0 242.0 120.0 242.0" stroke-width="1.1" opacity="0.85"/>
<path d="M64.0 217.0 Q52.1 221.7 59.0 225.7" stroke-width="1.1" opacity="0.85"/>
<path d="M23.0 176.0 Q10.3 174.1 14.3 181.0" stroke-width="1.1" opacity="0.85"/>
<path d="M8.0 120.0 Q-2.0 112.0 -2.0 120.0" stroke-width="1.1" opacity="0.85"/>
<path d="M23.0 64.0 Q18.3 52.1 14.3 59.0" stroke-width="1.1" opacity="0.85"/>
<path d="M64.0 23.0 Q65.9 10.3 59.0 14.3" stroke-width="1.1" opacity="0.85"/>
<path d="M120.0 42.0 L187.5 159.0 L52.5 159.0 Z" stroke-width="1" opacity="0.55"/>
<path d="M187.5 81.0 L120.0 198.0 L52.5 81.0 Z" stroke-width="1" opacity="0.55"/>
<circle cx="120" cy="120" r="60" stroke-width="0.5" stroke-dasharray="0.5 6" opacity="0.6"/>
<path d="M142.2 66.4 L136.8 79.3 L146.1 83.2" stroke-width="1.2" opacity="0.8"/>
<path d="M173.6 97.8 L160.7 103.2 L164.5 112.4" stroke-width="1.2" opacity="0.8"/>
<path d="M173.6 142.2 L160.7 136.8 L156.8 146.1" stroke-width="1.2" opacity="0.8"/>
<path d="M142.2 173.6 L136.8 160.7 L127.6 164.5" stroke-width="1.2" opacity="0.8"/>
<path d="M97.8 173.6 L103.2 160.7 L93.9 156.8" stroke-width="1.2" opacity="0.8"/>
<path d="M66.4 142.2 L79.3 136.8 L75.5 127.6" stroke-width="1.2" opacity="0.8"/>
<path d="M66.4 97.8 L79.3 103.2 L83.2 93.9" stroke-width="1.2" opacity="0.8"/>
<path d="M97.8 66.4 L103.2 79.3 L112.4 75.5" stroke-width="1.2" opacity="0.8"/>
</g>
<g stroke="currentColor" stroke-width="2.2" stroke-linecap="round" fill="none" opacity="0.95">
<path d="M94 100 L94 140 M110 100 L110 140 M94 120 L110 120"/>
<path d="M130 100 L130 140 M146 100 L146 140 M130 100 L146 140"/>
<path d="M118 96 L122 144" stroke-width="1.4" opacity="0.7"/>
</g>
<circle cx="120" cy="120" r="1.6" fill="currentColor"/>
</svg>